# xmcd
#
# Track frame offsets:
#	150
#	19188
#	34848
#	53112
#	66073
#	82468
#	98483
#	114889
#	135278
#	149168
#	166959
#	183109
#
# Disc length: 2674 seconds
#
# Revision: 1
# Processed by: cddbd v1.5.2PL0 Copyright (c) Steve Scherf et al.
# Submitted via: audiograbber 1.83.01
#
DISCID=9d0a700c
DTITLE=Gabe Lopez - Calloused Hand CD 1
DYEAR=2009
DGENRE=Country
TTITLE0=Calloused Hand
TTITLE1=Tejanita Baby
TTITLE2=I Never Really Loved You
TTITLE3=Tony Rome The Matador
TTITLE4=Long Before You Said Goodbye
TTITLE5=I Love How You Love Me
TTITLE6=Now That You Gone
TTITLE7=Cowboy Cumbia
TTITLE8=Get Rowdy Tonight
TTITLE9=I Never Really Loved You
TTITLE10=I Love How You Love Me 
TTITLE11=Long Before You Said Goodbye
EXTD=
EXTT0=
EXTT1=
EXTT2=
EXTT3=
EXTT4=
EXTT5=
EXTT6=
EXTT7=
EXTT8=
EXTT9=
EXTT10=
EXTT11=
PLAYORDER=
